<svg width="148" height="148" viewBox="0 0 148 148" fill="none" xmlns="http://www.w3.org/2000/svg">
<path opacity="0.3" d="M91.2235 18.5C93.3572 18.5 95.4292 19.24 97.0818 20.5967L97.7602 21.2133L107.393 30.8333H123.333C126.445 30.8323 129.442 32.0075 131.723 34.1232C134.005 36.239 135.402 39.1389 135.636 42.2417L135.667 43.1667V117.167C135.668 120.278 134.493 123.275 132.377 125.557C130.261 127.838 127.361 129.236 124.258 129.469L123.333 129.5H24.6667C21.5551 129.501 18.5582 128.326 16.2766 126.21C13.9951 124.094 12.5975 121.194 12.3642 118.092L12.3333 117.167V43.1667C12.3324 40.0551 13.5075 37.0582 15.6232 34.7766C17.739 32.4951 20.6389 31.0975 23.7417 30.8642L24.6667 30.8333H40.6137L50.2337 21.2133C51.7445 19.6963 53.7363 18.7528 55.8638 18.5432L56.7765 18.5H91.2235Z" fill="#590691"/>
<path d="M74 46.25C50.2645 46.25 35.4275 71.9465 47.2983 92.5C50.0045 97.1871 53.8967 101.079 58.5838 103.786C63.2709 106.492 68.5878 107.917 74 107.917C97.7355 107.917 112.573 82.2202 100.702 61.6667C97.9955 56.9795 94.1033 53.0873 89.4162 50.3811C84.7291 47.6749 79.4122 46.2501 74 46.25Z" fill="#73478E"/>
</svg>
